<svg xmlns="http://www.w3.org/2000/svg" xmlns:xlink="http://www.w3.org/1999/xlink" width="646" zoomAndPan="magnify" viewBox="0 0 484.5 149.999998" height="200" preserveAspectRatio="xMidYMid meet" version="1.0"><defs><g/><clipPath id="c97a73f57a"><path d="M 335.335938 22.183594 L 433.351562 22.183594 L 433.351562 114.429688 L 335.335938 114.429688 Z M 335.335938 22.183594 " clip-rule="nonzero"/></clipPath><clipPath id="2cfcbb5aed"><path d="M 337.585938 22.183594 L 431.078125 22.183594 C 432.320312 22.183594 433.328125 23.1875 433.328125 24.429688 L 433.328125 112.183594 C 433.328125 113.425781 432.320312 114.429688 431.078125 114.429688 L 337.585938 114.429688 C 336.34375 114.429688 335.335938 113.425781 335.335938 112.183594 L 335.335938 24.429688 C 335.335938 23.1875 336.34375 22.183594 337.585938 22.183594 Z M 337.585938 22.183594 " clip-rule="nonzero"/></clipPath></defs><g fill="#000000" fill-opacity="1"><g transform="translate(40.807815, 92.374979)"><g><path d="M 47.34375 0 L 34.75 0 L 14.421875 -35.359375 L 14.125 -35.359375 C 14.53125 -29.109375 14.734375 -24.65625 14.734375 -22 L 14.734375 0 L 5.875 0 L 5.875 -46.734375 L 18.375 -46.734375 L 38.6875 -11.734375 L 38.90625 -11.734375 C 38.582031 -17.804688 38.421875 -22.097656 38.421875 -24.609375 L 38.421875 -46.734375 L 47.34375 -46.734375 Z M 47.34375 0 "/></g></g></g><g fill="#000000" fill-opacity="1"><g transform="translate(94.031668, 92.374979)"><g><path d="M 19.921875 -29.46875 C 17.847656 -29.46875 16.222656 -28.8125 15.046875 -27.5 C 13.878906 -26.195312 13.210938 -24.335938 13.046875 -21.921875 L 26.71875 -21.921875 C 26.675781 -24.335938 26.046875 -26.195312 24.828125 -27.5 C 23.617188 -28.8125 21.984375 -29.46875 19.921875 -29.46875 Z M 21.296875 0.640625 C 15.535156 0.640625 11.035156 -0.945312 7.796875 -4.125 C 4.554688 -7.300781 2.9375 -11.796875 2.9375 -17.609375 C 2.9375 -23.597656 4.429688 -28.226562 7.421875 -31.5 C 10.421875 -34.769531 14.566406 -36.40625 19.859375 -36.40625 C 24.898438 -36.40625 28.828125 -34.96875 31.640625 -32.09375 C 34.453125 -29.21875 35.859375 -25.242188 35.859375 -20.171875 L 35.859375 -15.4375 L 12.8125 -15.4375 C 12.925781 -12.664062 13.75 -10.503906 15.28125 -8.953125 C 16.8125 -7.398438 18.960938 -6.625 21.734375 -6.625 C 23.890625 -6.625 25.925781 -6.84375 27.84375 -7.28125 C 29.757812 -7.726562 31.765625 -8.445312 33.859375 -9.4375 L 33.859375 -1.890625 C 32.148438 -1.035156 30.328125 -0.398438 28.390625 0.015625 C 26.453125 0.429688 24.085938 0.640625 21.296875 0.640625 Z M 21.296875 0.640625 "/></g></g></g><g fill="#000000" fill-opacity="1"><g transform="translate(132.710849, 92.374979)"><g><path d="M 20.171875 -7.125 C 21.878906 -7.125 23.925781 -7.5 26.3125 -8.25 L 26.3125 -0.984375 C 23.882812 0.0976562 20.898438 0.640625 17.359375 0.640625 C 13.460938 0.640625 10.625 -0.34375 8.84375 -2.3125 C 7.0625 -4.289062 6.171875 -7.25 6.171875 -11.1875 L 6.171875 -28.421875 L 1.5 -28.421875 L 1.5 -32.546875 L 6.875 -35.796875 L 9.6875 -43.34375 L 15.921875 -43.34375 L 15.921875 -35.734375 L 25.921875 -35.734375 L 25.921875 -28.421875 L 15.921875 -28.421875 L 15.921875 -11.1875 C 15.921875 -9.800781 16.304688 -8.773438 17.078125 -8.109375 C 17.859375 -7.453125 18.890625 -7.125 20.171875 -7.125 Z M 20.171875 -7.125 "/></g></g></g><g fill="#000000" fill-opacity="1"><g transform="translate(161.128882, 92.374979)"><g><path d="M 51.40625 0 L 40.125 0 L 33.796875 -24.546875 C 33.554688 -25.421875 33.15625 -27.226562 32.59375 -29.96875 C 32.03125 -32.707031 31.703125 -34.546875 31.609375 -35.484375 C 31.484375 -34.328125 31.164062 -32.472656 30.65625 -29.921875 C 30.144531 -27.378906 29.75 -25.566406 29.46875 -24.484375 L 23.171875 0 L 11.921875 0 L 0 -46.734375 L 9.75 -46.734375 L 15.734375 -21.21875 C 16.773438 -16.507812 17.53125 -12.429688 18 -8.984375 C 18.125 -10.203125 18.414062 -12.082031 18.875 -14.625 C 19.332031 -17.164062 19.765625 -19.144531 20.171875 -20.5625 L 26.984375 -46.734375 L 36.34375 -46.734375 L 43.15625 -20.5625 C 43.457031 -19.382812 43.832031 -17.59375 44.28125 -15.1875 C 44.726562 -12.78125 45.066406 -10.710938 45.296875 -8.984375 C 45.503906 -10.640625 45.84375 -12.707031 46.3125 -15.1875 C 46.789062 -17.675781 47.21875 -19.6875 47.59375 -21.21875 L 53.546875 -46.734375 L 63.296875 -46.734375 Z M 51.40625 0 "/></g></g></g><g fill="#000000" fill-opacity="1"><g transform="translate(224.422088, 92.374979)"><g><path d="M 12.875 -17.9375 C 12.875 -14.394531 13.457031 -11.71875 14.625 -9.90625 C 15.789062 -8.09375 17.679688 -7.1875 20.296875 -7.1875 C 22.898438 -7.1875 24.769531 -8.085938 25.90625 -9.890625 C 27.050781 -11.691406 27.625 -14.375 27.625 -17.9375 C 27.625 -21.46875 27.046875 -24.117188 25.890625 -25.890625 C 24.742188 -27.660156 22.859375 -28.546875 20.234375 -28.546875 C 17.628906 -28.546875 15.75 -27.664062 14.59375 -25.90625 C 13.445312 -24.144531 12.875 -21.488281 12.875 -17.9375 Z M 37.59375 -17.9375 C 37.59375 -12.113281 36.054688 -7.5625 32.984375 -4.28125 C 29.921875 -1 25.648438 0.640625 20.171875 0.640625 C 16.742188 0.640625 13.71875 -0.109375 11.09375 -1.609375 C 8.46875 -3.117188 6.453125 -5.28125 5.046875 -8.09375 C 3.640625 -10.90625 2.9375 -14.1875 2.9375 -17.9375 C 2.9375 -23.769531 4.457031 -28.304688 7.5 -31.546875 C 10.550781 -34.785156 14.835938 -36.40625 20.359375 -36.40625 C 23.796875 -36.40625 26.820312 -35.660156 29.4375 -34.171875 C 32.0625 -32.679688 34.078125 -30.539062 35.484375 -27.75 C 36.890625 -24.957031 37.59375 -21.6875 37.59375 -17.9375 Z M 37.59375 -17.9375 "/></g></g></g><g fill="#000000" fill-opacity="1"><g transform="translate(264.955312, 92.374979)"><g><path d="M 25.0625 -36.40625 C 26.382812 -36.40625 27.484375 -36.3125 28.359375 -36.125 L 27.625 -26.984375 C 26.832031 -27.191406 25.875 -27.296875 24.75 -27.296875 C 21.632812 -27.296875 19.207031 -26.492188 17.46875 -24.890625 C 15.726562 -23.296875 14.859375 -21.0625 14.859375 -18.1875 L 14.859375 0 L 5.109375 0 L 5.109375 -35.734375 L 12.5 -35.734375 L 13.9375 -29.734375 L 14.421875 -29.734375 C 15.523438 -31.734375 17.019531 -33.34375 18.90625 -34.5625 C 20.789062 -35.789062 22.84375 -36.40625 25.0625 -36.40625 Z M 25.0625 -36.40625 "/></g></g></g><g fill="#000000" fill-opacity="1"><g transform="translate(294.683939, 92.374979)"><g><path d="M 14.484375 -19.4375 L 18.734375 -24.875 L 28.734375 -35.734375 L 39.734375 -35.734375 L 25.546875 -20.234375 L 40.59375 0 L 29.34375 0 L 19.046875 -14.484375 L 14.859375 -11.125 L 14.859375 0 L 5.109375 0 L 5.109375 -49.734375 L 14.859375 -49.734375 L 14.859375 -27.5625 L 14.359375 -19.4375 Z M 14.484375 -19.4375 "/></g></g></g><g clip-path="url(#c97a73f57a)"><g clip-path="url(#2cfcbb5aed)"><path fill="#38b6ff" d="M 335.335938 22.183594 L 433.351562 22.183594 L 433.351562 114.429688 L 335.335938 114.429688 Z M 335.335938 22.183594 " fill-opacity="1" fill-rule="nonzero"/></g></g><g fill="#ffffff" fill-opacity="1"><g transform="translate(335.336958, 92.374979)"><g><path d="M 43.921875 -46.734375 L 43.921875 -16.5 C 43.921875 -13.039062 43.144531 -10.007812 41.59375 -7.40625 C 40.050781 -4.8125 37.820312 -2.820312 34.90625 -1.4375 C 31.988281 -0.0507812 28.535156 0.640625 24.546875 0.640625 C 18.535156 0.640625 13.867188 -0.894531 10.546875 -3.96875 C 7.222656 -7.050781 5.5625 -11.269531 5.5625 -16.625 L 5.5625 -46.734375 L 15.4375 -46.734375 L 15.4375 -18.125 C 15.4375 -14.519531 16.160156 -11.875 17.609375 -10.1875 C 19.054688 -8.507812 21.457031 -7.671875 24.8125 -7.671875 C 28.050781 -7.671875 30.398438 -8.515625 31.859375 -10.203125 C 33.316406 -11.898438 34.046875 -14.5625 34.046875 -18.1875 L 34.046875 -46.734375 Z M 43.921875 -46.734375 "/></g></g></g><g fill="#ffffff" fill-opacity="1"><g transform="translate(384.820736, 92.374979)"><g><path d="M 24.75 0.640625 C 20.539062 0.640625 17.242188 -0.882812 14.859375 -3.9375 L 14.359375 -3.9375 C 14.691406 -0.945312 14.859375 0.78125 14.859375 1.25 L 14.859375 15.734375 L 5.109375 15.734375 L 5.109375 -35.734375 L 13.046875 -35.734375 L 14.421875 -31.109375 L 14.859375 -31.109375 C 17.140625 -34.640625 20.519531 -36.40625 25 -36.40625 C 29.21875 -36.40625 32.519531 -34.773438 34.90625 -31.515625 C 37.289062 -28.253906 38.484375 -23.726562 38.484375 -17.9375 C 38.484375 -14.125 37.921875 -10.804688 36.796875 -7.984375 C 35.679688 -5.171875 34.09375 -3.03125 32.03125 -1.5625 C 29.96875 -0.09375 27.539062 0.640625 24.75 0.640625 Z M 21.859375 -28.609375 C 19.453125 -28.609375 17.691406 -27.867188 16.578125 -26.390625 C 15.472656 -24.910156 14.898438 -22.460938 14.859375 -19.046875 L 14.859375 -18 C 14.859375 -14.164062 15.425781 -11.414062 16.5625 -9.75 C 17.707031 -8.082031 19.519531 -7.25 22 -7.25 C 26.363281 -7.25 28.546875 -10.851562 28.546875 -18.0625 C 28.546875 -21.582031 28.003906 -24.21875 26.921875 -25.96875 C 25.847656 -27.726562 24.160156 -28.609375 21.859375 -28.609375 Z M 21.859375 -28.609375 "/></g></g></g></svg>