<?xml version="1.0" standalone="no"?>
<!DOCTYPE svg PUBLIC "-//W3C//DTD SVG 20010904//EN"
 "http://www.w3.org/TR/2001/REC-SVG-20010904/DTD/svg10.dtd">
<svg version="1.0" xmlns="http://www.w3.org/2000/svg"
 width="565.000000pt" height="175.000000pt" viewBox="0 0 565.000000 175.000000"
 preserveAspectRatio="xMidYMid meet">

<g transform="translate(0.000000,175.000000) scale(0.100000,-0.100000)"
fill="#000000" stroke="none">
<path d="M3916 1468 c-3 -13 -4 -195 -1 -405 2 -211 1 -383 -3 -383 -6 1 -144
181 -164 215 -5 8 22 45 72 101 l80 89 -61 3 -61 3 -61 -67 c-34 -37 -72 -81
-84 -98 l-23 -30 0 177 0 177 -55 0 -55 0 0 -290 0 -290 55 0 55 0 0 64 c0 58
3 67 26 85 l27 21 60 -85 60 -85 66 0 66 0 -2 -113 c-1 -62 2 -119 6 -125 6
-9 142 -12 572 -10 l564 3 0 530 0 530 -566 3 -567 2 -6 -22z m184 -456 l5
-204 28 -24 c39 -33 105 -33 144 0 l28 24 5 204 5 203 55 0 55 0 3 -180 c3
-189 -5 -248 -39 -296 -66 -93 -282 -100 -361 -12 -42 46 -48 84 -48 293 l0
201 58 -3 57 -3 5 -203z m767 58 c12 -8 32 -32 45 -54 20 -35 23 -55 23 -136
0 -86 -3 -100 -27 -142 -46 -77 -145 -100 -211 -48 -14 11 -27 20 -29 20 -3 0
-2 -49 0 -110 l5 -110 -62 0 -61 0 0 300 0 300 46 0 c41 0 46 -3 56 -31 10
-29 11 -29 24 -11 33 48 131 59 191 22z"/>
<path d="M4690 980 c-35 -35 -25 -186 14 -212 18 -13 83 -9 94 5 36 43 33 187
-4 214 -27 20 -81 16 -104 -7z"/>
<path d="M545 1188 c-3 -18 -5 -141 -3 -273 l3 -240 54 -3 53 -3 -4 204 c-2
155 -1 201 8 188 6 -9 59 -100 118 -203 l108 -188 74 0 74 0 0 276 0 275 -52
-3 -53 -3 2 -204 c1 -112 1 -202 -1 -200 -2 2 -56 95 -121 207 l-117 202 -69
0 -68 0 -6 -32z"/>
<path d="M1888 1215 c-3 -3 25 -126 63 -273 38 -147 69 -268 69 -270 0 -2 30
-2 67 0 l67 3 46 187 c25 103 47 188 50 188 3 0 22 -71 44 -158 62 -251 46
-222 121 -222 76 0 60 -32 140 290 31 124 58 233 61 243 5 16 0 18 -52 15
l-58 -3 -43 -185 c-23 -102 -43 -193 -43 -202 0 -35 -18 -17 -24 25 -4 23 -26
114 -49 202 l-42 160 -55 0 -54 0 -48 -185 c-26 -102 -48 -195 -48 -208 0 -32
-20 -17 -21 16 0 15 -19 106 -42 202 l-42 175 -50 3 c-28 2 -53 0 -57 -3z"/>
<path d="M1647 1133 c-12 -32 -27 -54 -47 -65 -40 -23 -43 -68 -5 -68 l25 0 0
-115 c0 -174 27 -219 128 -220 31 0 69 4 85 8 24 6 27 12 27 48 l0 42 -40 -7
c-74 -12 -80 -2 -80 129 l0 115 55 0 55 0 0 45 0 45 -54 0 -55 0 -3 43 c-3 40
-4 42 -38 45 -34 3 -36 1 -53 -45z"/>
<path d="M1282 1088 c-23 -4 -56 -17 -73 -28 -83 -60 -103 -231 -37 -323 35
-49 92 -71 183 -71 44 1 92 6 108 12 24 10 27 17 27 56 l0 44 -37 -14 c-21 -7
-62 -13 -91 -14 -46 0 -58 4 -83 29 -16 16 -29 39 -29 50 0 20 5 21 136 21
l137 0 -6 60 c-12 111 -58 165 -152 180 -22 3 -59 2 -83 -2z m107 -104 c37
-47 29 -54 -59 -54 -88 0 -96 7 -59 54 16 20 29 26 59 26 30 0 43 -6 59 -26z"/>
<path d="M2815 1090 c-85 -12 -137 -65 -155 -159 -34 -178 97 -305 263 -257
95 28 147 121 134 237 -15 127 -111 197 -242 179z m101 -111 c24 -26 31 -142
12 -179 -19 -35 -62 -54 -96 -43 -68 22 -85 184 -25 231 27 20 87 15 109 -9z"/>
<path d="M3345 1085 c-22 -8 -50 -26 -62 -40 -12 -14 -24 -25 -26 -25 -3 0 -8
16 -11 36 -7 34 -8 35 -49 32 l-42 -3 -3 -207 -2 -208 60 0 60 0 0 126 c0 71
5 134 11 146 13 24 67 48 109 48 29 0 30 1 30 49 0 35 -4 51 -16 55 -9 3 -16
6 -17 6 -1 -1 -20 -7 -42 -15z"/>
</g>
</svg>
